<?xml version="1.0" standalone="no"?>
<!DOCTYPE svg PUBLIC "-//W3C//DTD SVG 20010904//EN"
 "http://www.w3.org/TR/2001/REC-SVG-20010904/DTD/svg10.dtd">
<svg version="1.0" xmlns="http://www.w3.org/2000/svg"
 width="512.000000pt" height="512.000000pt" viewBox="0 0 512.000000 512.000000"
 preserveAspectRatio="xMidYMid meet">
<metadata>
Created by potrace 1.11, written by Peter Selinger 2001-2013
</metadata>
<g transform="translate(0.000000,512.000000) scale(0.100000,-0.100000)"
fill="#000000" stroke="none">
<path d="M755 4750 c-108 -27 -208 -84 -267 -150 -248 -278 -114 -688 255
-783 65 -17 196 -15 255 3 257 81 403 316 348 562 -50 222 -257 380 -496 377
-36 -1 -78 -4 -95 -9z m204 -199 c162 -50 248 -214 191 -363 -78 -207 -362
-260 -519 -98 -80 82 -102 211 -52 308 72 142 222 202 380 153z"/>
<path d="M1633 4736 l-28 -24 -3 -610 -2 -609 -588 -2 c-553 -1 -588 -2 -612
-20 -34 -25 -46 -72 -30 -111 23 -55 44 -60 297 -59 125 0 387 0 581 -1 l352
0 0 -755 0 -756 -372 1 c-205 0 -471 1 -591 0 l-219 0 -29 -31 c-17 -18 -29
-42 -29 -58 0 -40 34 -87 66 -94 16 -3 281 -5 589 -6 308 0 566 0 572 -1 10 0
13 -133 15 -595 l3 -594 23 -23 c32 -32 102 -32 134 0 l23 23 3 594 c2 462 5
595 15 596 16 0 1433 0 1469 0 l28 -1 2 -593 c3 -591 3 -593 25 -616 12 -13
37 -25 62 -28 35 -5 44 -2 71 25 l30 30 0 591 0 591 23 1 c12 0 281 0 597 1
507 0 578 2 602 16 56 33 60 114 8 153 -24 18 -57 19 -627 19 l-603 1 0 754 0
755 103 0 c56 1 316 1 577 0 316 0 486 4 507 11 36 12 63 52 63 94 0 39 -50
85 -92 85 -18 1 -286 0 -595 0 l-563 0 -2 611 -3 611 -28 24 c-18 15 -41 24
-62 24 -21 0 -44 -9 -62 -24 l-28 -24 -3 -611 -2 -611 -755 0 -755 1 -2 610
-3 611 -28 24 c-18 15 -41 24 -62 24 -21 0 -44 -9 -62 -24z m1625 -1436 l42 0
0 -754 0 -755 -755 0 -755 -1 0 755 0 754 153 3 c116 2 946 1 1315 -2z"/>
<path d="M2235 2940 c-47 -18 -75 -82 -54 -124 6 -12 63 -74 127 -138 l117
-118 -117 -117 c-133 -133 -145 -158 -109 -217 25 -40 73 -56 112 -36 13 7 75
62 137 123 l112 112 118 -117 c64 -64 126 -121 138 -127 24 -11 71 -6 92 11
32 27 47 80 31 112 -6 11 -63 74 -127 139 l-117 117 117 118 c123 123 139 151
119 205 -14 35 -69 62 -107 53 -17 -5 -75 -54 -146 -124 l-118 -116 -123 122
c-68 67 -128 122 -133 123 -5 0 -18 2 -29 4 -11 2 -29 0 -40 -5z"/>
<path d="M2450 4749 c-73 -14 -186 -76 -244 -133 -164 -161 -191 -407 -65
-593 226 -335 756 -272 892 107 23 63 31 184 16 250 -28 127 -134 262 -252
321 -102 52 -234 70 -347 48z m222 -198 c63 -20 132 -83 167 -153 41 -82 41
-150 -1 -237 -87 -182 -352 -224 -500 -79 -154 149 -95 387 117 471 45 18 156
17 217 -2z"/>
<path d="M3915 4661 c-51 -22 -74 -83 -49 -131 7 -14 55 -66 106 -117 52 -51
103 -102 113 -113 19 -21 18 -21 -99 -139 -99 -99 -119 -124 -121 -152 -1 -19
2 -43 7 -55 13 -28 57 -52 88 -49 14 2 29 4 34 4 5 1 62 54 127 118 65 64 121
115 123 112 3 -2 56 -55 119 -117 123 -122 153 -138 206 -116 36 15 66 72 55
107 -4 12 -61 77 -127 144 l-121 123 123 125 124 126 -6 42 c-7 53 -44 87 -94
87 -33 0 -48 -11 -160 -122 l-123 -122 -123 122 c-125 124 -155 143 -202 123z"/>
<path d="M4115 3022 c-215 -54 -361 -229 -371 -443 -9 -214 131 -408 345 -475
68 -22 196 -26 269 -9 141 33 269 132 330 256 36 73 40 87 49 179 19 209 -122
412 -335 482 -82 27 -202 31 -287 10z m215 -188 c32 -9 79 -32 105 -52 157
-120 148 -351 -18 -456 -96 -61 -208 -70 -307 -24 -74 33 -110 66 -145 130
-26 46 -30 63 -30 128 0 65 5 83 31 130 52 93 160 157 268 159 22 1 65 -6 96
-15z"/>
<path d="M2432 1300 c-97 -26 -163 -63 -231 -130 -96 -97 -142 -214 -137 -354
6 -177 115 -332 286 -410 67 -31 94 -36 190 -41 99 -5 160 7 249 51 297 146
360 528 125 759 -122 121 -311 170 -482 125z m242 -195 c27 -9 54 -21 60 -26
6 -5 25 -20 41 -33 17 -13 44 -48 60 -78 26 -46 30 -63 30 -128 0 -57 -6 -85
-22 -116 -58 -109 -140 -161 -268 -169 -119 -8 -231 53 -289 155 -27 48 -31
65 -31 130 0 68 3 81 35 134 78 131 234 184 384 131z"/>
<path d="M535 1220 c-47 -18 -75 -82 -54 -124 6 -12 63 -74 127 -138 l116
-117 -122 -125 c-114 -116 -123 -127 -120 -160 3 -52 35 -86 85 -93 l42 -6
126 124 126 123 124 -124 c118 -118 127 -125 165 -125 67 0 117 73 89 129 -6
12 -63 74 -127 138 l-116 118 122 123 c128 130 136 145 110 202 -15 34 -54 53
-97 50 -28 -2 -53 -22 -152 -121 l-119 -118 -123 122 c-68 67 -128 123 -133
123 -37 5 -52 5 -69 -1z"/>
</g>
</svg>
